<?xml version="1.0" encoding="UTF-8"?><svg xmlns="http://www.w3.org/2000/svg" viewBox="0 0 1016.33 1016.33"><defs><style>.c{letter-spacing:.02em;}.d{fill:#f27405;stroke-width:12.61px;}.d,.e,.f,.g{stroke:#fff;}.d,.e,.f,.g,.h,.i,.j,.k,.l{stroke-miterlimit:10;}.e{fill:none;stroke-width:2.23px;}.m{letter-spacing:-.04em;}.f{fill:#f25c05;stroke-width:18.13px;}.n{letter-spacing:.02em;}.g{stroke-width:36.75px;}.g,.j,.k{fill:#fff;}.o{font-family:Bebas-Regular, Bebas;font-size:74.84px;}.h{fill:#0075c2;}.h,.i{stroke-width:1.49px;}.h,.i,.j{stroke-linecap:round;}.h,.i,.j,.k{stroke:#000;}.i{fill:#eb1c22;}.j,.k{stroke-width:.74px;}.l{fill:#1f4991;stroke:#f25c05;stroke-width:22.78px;}</style></defs><g id="a"><circle class="d" cx="508.16" cy="508.16" r="422.42"/><circle class="l" cx="508.16" cy="508.16" r="496.77"/><circle class="f" cx="508.16" cy="508.16" r="395.34"/><polygon class="g" points="508.16 196.16 222.49 690.96 793.84 690.96 508.16 196.16"/><text class="o" transform="translate(436.65 625.97)"><tspan x="0" y="0">SICPC</tspan><tspan class="c" x="-106.91" y="65">C</tspan><tspan class="n" x="-73.68" y="65">ONSU</tspan><tspan class="m" x="63.58" y="65">L</tspan><tspan class="n" x="88.5" y="65">TORES</tspan></text></g><g id="b"><g><polygon class="h" points="578.35 434.56 636.65 467.93 603.28 527.47 543.08 495.91 543.08 566.1 503.88 566.1 503.88 306.1 543.08 306.1 543.08 372.44 599.83 341 636.65 399.28 578.35 434.56"/><path class="i" d="M503.88,306.1v260s-16.02,.77-27.91-6.14c-11.89-6.9-11.12-9.97-19.56-14.19-8.44-4.22-24.16-3.45-29.53-4.6-5.36-1.15-8.43-2.3-9.58-8.05-.01-.06-.02-.11-.04-.17-.77-3.95,.57-8,3.48-10.77l27.23-25.87s1.92-2.3-.39-3.83c-2.3-1.53-3.83,.39-3.83,.39l-26.28,25.59c-2.5,2.44-5.83,3.95-9.32,4-.42,0-.82-.01-1.21-.06-.77-.1-1.6-.55-2.43-1.18-3.09-2.36-4.83-6.08-4.91-9.96-.13-5.93-.55-15.87-1.86-19.54-1.92-5.37-21.48-31.83-23.78-44.48-.88-4.83-.59-10.8,.12-16.35,1.2-9.55,4.61-18.68,9.84-26.75,3.94-6.06,8.54-13.29,10.36-16.73,3.45-6.52,4.32-21.09,4.32-21.09,0,0,1.1-10.25,5.65-13.04,3.45-2.1,7.81-1.71,9.41-1.14,.57,.2,1.08,.53,1.51,.97l27.04,27.8s1.92,1.92,5.36,0c3.45-1.92,.39-4.22,.39-4.22l-28.37-27.26c-1.81-1.75-2.88-4.18-2.74-6.69,.08-1.55,.61-3.32,1.96-5.17,3.31-4.51,8.03-5.01,9.92-5.02,1.06,0,2.1-.07,3.15-.17,4.42-.41,13.94-1.42,18-2.87,5.37-1.92,19.56-11.12,26.08-15.72,6.52-4.6,27.91-7.67,27.91-7.67Z"/><line class="e" x1="503.88" y1="306.48" x2="503.88" y2="565.71"/><path class="k" d="M510.76,528.96c-1.09,1.62-2.46,2.73-3.84,3.51-1.6,.88-3.24,1.31-4.5,1.51-.65,.1-1.2,.14-1.6,.16-.22,0-.3-.27-.13-.39,.5-.36,1-.73,1.47-1.1,2.56-1.97,4.76-4,5.85-5.87,.65-1.11,.92-2.15,.64-3.08-.1-.33-.25-.6-.46-.83,.04-1.6,.08-3.96,.15-6.95,1.61,.78,2.97,1.43,3.86,3.18,1.66,3.27,.19,7.46-1.43,9.87Z"/><path class="k" d="M515.08,478.71c-1.34,3.84-3.11,4.76-6.12,8.05-1.27,1.39-2.76,3.21-4.52,5.85-2.24,3.35-3.5,5.88-4.18,7.83-.89,2.54-.79,4.08-.61,5.11,.19,1.04,.51,1.99,.91,2.82,.17,4.51,.31,8.28,.42,11.12-.42-.27-.85-.59-1.28-.95-5.89-5.04-5.84-14.29-5.81-18.84,.01-2.65,.07-6.55,1.82-11.12,1-2.59,2.36-4.73,3.86-6.53,4-4.83,8.87-7.27,9.7-9.61,.16-.43,.17-.85,.02-1.29h0c.07-3.29,.14-6.66,.22-10.08,2.64,1.59,3.66,1.91,4.7,3.64,3.64,6.04,1.33,12.67,.87,14Z"/><path class="k" d="M522.46,412.76c-.06,3.86-4.15,9.33-12.33,18.83-1.9,2.21-4.02,4.65-6.37,7.33-2.84,3.25-4.94,5.99-5.45,8.73-.17,.96-.16,1.92,.1,2.9,.19,5.45,.39,10.79,.58,15.95-6.55-4.44-9.93-13.66-9.43-21.25,.36-5.51,2.71-9.21,6.23-14.76,.6-.95,1.21-1.85,1.82-2.7,5.59-7.9,10.96-11.65,12.89-14.61,.66-1.02,.91-1.95,.63-2.91-.12-.39-.3-.73-.56-1,.1-4.74,.2-9.4,.3-13.93,.33,.23,.68,.48,1.03,.75,1.82,1.4,10.68,8.24,10.54,16.68Z"/><path class="k" d="M511.05,361.66c-.58,1.95-4.45,2.79-7.19,2.59-2.5-.18-3.54-1.18-6.23-.86-.74,.09-1.45,.25-2.04,.45-.51,.16-.94,.34-1.23,.51-4.35,2.45-5.57,15.82,.77,23.2,.39,.46,.79,.86,1.19,1.22,.17,5.25,.34,10.65,.52,16.13-.44-.2-.88-.42-1.33-.66-9.85-5.3-17.44-17.6-16.78-30.01,.53-9.81,6.24-20.37,13.71-22.82,.57-.19,1.59-.52,2.8-.75,2.05-.41,4.64-.53,6.5,.85,.93,.68,1.5,1.6,3.74,3.25,1.67,1.23,2.03,1.22,2.97,2.11,.63,.59,3.13,2.96,2.59,4.79Z"/><path class="k" d="M502.42,533.97c1.26-.2,2.9-.62,4.5-1.51l-2.33,9.28c-.09,.37-.62,.36-.7-.02l-1.47-7.75Z"/><path class="k" d="M508.96,486.77c-.25,12.1-.47,22.28-.62,29.13-.07,2.99-.11,5.34-.15,6.95-.04,1.6-.05,2.45-.05,2.45-.03,.48-.07,.97-.13,1.46-1.1,1.86-3.29,3.9-5.85,5.87l-.4-2.12c-.31-1.64-.5-3.31-.55-4.97,0,0-.08-2.16-.23-6.03-.11-2.85-.25-6.61-.42-11.12-.1-2.44-.19-5.09-.3-7.94,.68-1.95,1.94-4.48,4.18-7.83,1.77-2.64,3.25-4.46,4.52-5.85Z"/><path class="k" d="M510.13,431.59c-.22,9.99-.42,19.96-.62,29.48-.07,3.43-.14,6.79-.22,10.07h0l-.02,1.3c-.83,2.34-5.71,4.78-9.7,9.61-.18-4.93-.37-10.14-.56-15.55-.19-5.16-.39-10.51-.58-15.95-.03-.97-.07-1.93-.1-2.9,.51-2.74,2.61-5.48,5.45-8.73,2.35-2.68,4.47-5.12,6.37-7.33Z"/><path class="k" d="M512.05,338.25c-.1,6.01-.58,29.09-1.17,57.08-.1,4.53-.19,9.19-.3,13.93-.02,1.3-.05,2.6-.07,3.92-1.93,2.96-7.3,6.72-12.89,14.61-.27-7.67-.53-15.36-.78-22.9-.18-5.48-.35-10.88-.52-16.13-.27-8.83-.53-17.24-.74-24.92,.59-.2,1.29-.36,2.04-.45,2.7-.32,3.73,.68,6.23,.86,2.74,.19,6.61-.64,7.19-2.59,.53-1.83-1.96-4.2-2.59-4.79-.94-.89-1.3-.88-2.97-2.11-2.24-1.65-2.81-2.57-3.74-3.25-1.86-1.37-4.45-1.26-6.5-.85-.12-4.69-.21-8.93-.27-12.6-.04-2.55,0-7.85,7.77-7.85,9.3,0,9.35,5.65,9.3,8.04Z"/><line class="j" x1="496.14" y1="354.54" x2="499.38" y2="354.54"/><path class="j" d="M507.14,360.58c0,.59,1.75,1.07,3.91,1.07"/></g></g></svg>